<svg width="266" height="37" viewBox="0 0 266 37" fill="none" xmlns="http://www.w3.org/2000/svg">
<path d="M49.9117 9.99483V13.8172H41.1202V18.8158H47.8535V22.4912H41.1202V27.5926H49.9117V31.415H36.1216V9.99483H49.9117ZM63.6997 21.6238C63.8957 21.9962 64.082 22.3834 64.2584 22.7852C64.4446 23.1871 64.621 23.5987 64.7876 24.0201C64.9543 23.5889 65.1307 23.1724 65.3169 22.7705C65.5031 22.3589 65.6942 21.9619 65.8903 21.5797L71.3886 10.7593C71.4867 10.5731 71.5847 10.431 71.6827 10.333C71.7905 10.2252 71.9081 10.1467 72.0355 10.0977C72.1629 10.0487 72.305 10.0193 72.4619 10.0095C72.6285 9.99973 72.8196 9.99483 73.0352 9.99483H76.8282V31.415H72.4472V19.0951C72.4472 18.4972 72.4766 17.8504 72.5354 17.1545L66.8606 28.166C66.6841 28.509 66.444 28.7688 66.1402 28.9452C65.8461 29.1216 65.508 29.2098 65.1258 29.2098H64.4495C64.0673 29.2098 63.7242 29.1216 63.4204 28.9452C63.1264 28.7688 62.8911 28.509 62.7147 28.166L57.0105 17.1398C57.0497 17.4828 57.0791 17.8259 57.0987 18.1689C57.1183 18.5021 57.1281 18.8109 57.1281 19.0951V31.415H52.747V9.99483H56.54C56.7557 9.99483 56.9419 9.99973 57.0987 10.0095C57.2653 10.0193 57.4123 10.0487 57.5398 10.0977C57.6672 10.1467 57.7799 10.2252 57.8779 10.333C57.9857 10.431 58.0886 10.5731 58.1866 10.7593L63.6997 21.6238ZM85.3391 24.2554V31.415H80.3699V9.99483H87.9265C89.4359 9.99483 90.7297 10.1762 91.8078 10.5388C92.8957 10.8916 93.7876 11.3817 94.4835 12.0089C95.1891 12.6362 95.7086 13.3762 96.0418 14.2289C96.3751 15.0816 96.5417 16.0029 96.5417 16.9928C96.5417 18.0611 96.3702 19.0412 96.0271 19.9331C95.6841 20.825 95.1597 21.5895 94.4541 22.2265C93.7484 22.8636 92.8516 23.3635 91.7637 23.7261C90.6855 24.0789 89.4065 24.2554 87.9265 24.2554H85.3391ZM85.3391 20.5065H87.9265C89.2203 20.5065 90.1514 20.1977 90.7198 19.5803C91.2883 18.9628 91.5725 18.1003 91.5725 16.9928C91.5725 16.5027 91.499 16.0568 91.352 15.6549C91.205 15.2531 90.9796 14.9101 90.6757 14.6258C90.3817 14.3318 90.0044 14.1064 89.5437 13.9496C89.0929 13.7927 88.5538 13.7143 87.9265 13.7143H85.3391V20.5065ZM104.56 31.415H99.5612V9.99483H104.56V31.415ZM113.508 23.4909V31.415H108.538V9.99483H115.507C117.056 9.99483 118.374 10.1565 119.462 10.48C120.559 10.7936 121.451 11.2347 122.137 11.8031C122.833 12.3716 123.338 13.043 123.652 13.8172C123.965 14.5915 124.122 15.4344 124.122 16.3459C124.122 17.0418 124.029 17.6985 123.843 18.3159C123.657 18.9334 123.377 19.5068 123.005 20.036C122.642 20.5555 122.191 21.021 121.652 21.4327C121.123 21.8443 120.51 22.1824 119.815 22.4471C120.148 22.6137 120.456 22.8195 120.741 23.0645C121.035 23.3096 121.29 23.6085 121.505 23.9613L126.063 31.415H121.564C120.731 31.415 120.133 31.1014 119.77 30.4741L116.213 24.2554C116.056 23.9809 115.87 23.7849 115.654 23.6673C115.448 23.5497 115.154 23.4909 114.772 23.4909H113.508ZM113.508 20.0654H115.507C116.183 20.0654 116.757 19.9821 117.227 19.8155C117.707 19.6391 118.099 19.3989 118.403 19.0951C118.707 18.7913 118.928 18.4384 119.065 18.0366C119.202 17.625 119.271 17.1839 119.271 16.7135C119.271 15.7726 118.962 15.0375 118.344 14.5082C117.737 13.979 116.791 13.7143 115.507 13.7143H113.508V20.0654ZM141.883 9.99483V13.8172H133.091V18.8158H139.825V22.4912H133.091V27.5926H141.883V31.415H128.093V9.99483H141.883ZM151.197 31.415V10.3477H157.916C159.21 10.3477 160.322 10.4751 161.253 10.7299C162.194 10.9847 162.964 11.3474 163.561 11.8178C164.169 12.2883 164.615 12.8665 164.899 13.5526C165.193 14.2289 165.34 14.9934 165.34 15.8461C165.34 16.3655 165.257 16.8654 165.09 17.3456C164.934 17.8259 164.688 18.2718 164.355 18.6835C164.032 19.0951 163.62 19.4627 163.12 19.7861C162.63 20.1095 162.052 20.3741 161.386 20.58C162.924 20.8838 164.086 21.4376 164.87 22.2413C165.654 23.0449 166.046 24.1035 166.046 25.4168C166.046 26.3087 165.879 27.1222 165.546 27.8573C165.223 28.5923 164.742 29.2245 164.105 29.7538C163.478 30.283 162.704 30.6947 161.782 30.9887C160.871 31.2729 159.827 31.415 158.651 31.415H151.197ZM154.049 21.8149V29.151H158.607C159.42 29.151 160.116 29.0579 160.695 28.8717C161.283 28.6854 161.763 28.4257 162.135 28.0925C162.518 27.7494 162.797 27.3476 162.973 26.887C163.15 26.4165 163.238 25.9019 163.238 25.3433C163.238 24.2554 162.851 23.3978 162.077 22.7705C161.312 22.1334 160.151 21.8149 158.592 21.8149H154.049ZM154.049 19.7861H157.813C158.617 19.7861 159.313 19.6979 159.901 19.5215C160.489 19.345 160.974 19.1 161.356 18.7864C161.748 18.4727 162.037 18.0954 162.224 17.6544C162.41 17.2035 162.503 16.7135 162.503 16.1842C162.503 14.9493 162.13 14.0427 161.386 13.4644C160.641 12.8861 159.484 12.597 157.916 12.597H154.049V19.7861ZM178.424 29.151C179.296 29.151 180.075 29.004 180.761 28.7099C181.447 28.4159 182.025 28.0043 182.496 27.475C182.976 26.9458 183.339 26.3136 183.584 25.5785C183.839 24.8434 183.966 24.0348 183.966 23.1527V10.3477H186.803V23.1527C186.803 24.3681 186.607 25.4952 186.215 26.5341C185.833 27.573 185.279 28.4747 184.554 29.2392C183.839 29.9939 182.961 30.5868 181.923 31.0181C180.884 31.4493 179.717 31.665 178.424 31.665C177.13 31.665 175.963 31.4493 174.925 31.0181C173.886 30.5868 173.004 29.9939 172.278 29.2392C171.553 28.4747 170.994 27.573 170.602 26.5341C170.22 25.4952 170.029 24.3681 170.029 23.1527V10.3477H172.866V23.138C172.866 24.0201 172.989 24.8287 173.234 25.5638C173.489 26.2989 173.851 26.9311 174.322 27.4603C174.802 27.9896 175.385 28.4061 176.071 28.7099C176.767 29.004 177.551 29.151 178.424 29.151ZM194.844 22.6235V31.415H192.007V10.3477H197.961C199.294 10.3477 200.446 10.4849 201.416 10.7593C202.386 11.0239 203.185 11.4111 203.812 11.9207C204.449 12.4304 204.92 13.0479 205.224 13.7731C205.527 14.4886 205.679 15.2923 205.679 16.1842C205.679 16.9291 205.562 17.625 205.326 18.2718C205.091 18.9187 204.748 19.5019 204.297 20.0213C203.856 20.531 203.312 20.9671 202.666 21.3298C202.028 21.6924 201.303 21.9668 200.49 22.153C200.843 22.3589 201.156 22.6578 201.431 23.0498L207.576 31.415H205.047C204.528 31.415 204.145 31.2141 203.9 30.8123L198.431 23.2851C198.265 23.0498 198.084 22.8832 197.887 22.7852C197.691 22.6774 197.397 22.6235 197.005 22.6235H194.844ZM194.844 20.5506H197.829C198.662 20.5506 199.392 20.4526 200.019 20.2565C200.656 20.0507 201.186 19.7665 201.607 19.4038C202.038 19.0314 202.362 18.5904 202.577 18.0807C202.793 17.571 202.901 17.0075 202.901 16.39C202.901 15.1355 202.484 14.1897 201.651 13.5526C200.828 12.9155 199.598 12.597 197.961 12.597H194.844V20.5506ZM219.341 29.3421C219.909 29.3421 220.428 29.3176 220.899 29.2686C221.379 29.2098 221.83 29.1265 222.251 29.0187C222.673 28.9109 223.07 28.7835 223.442 28.6364C223.815 28.4796 224.187 28.3032 224.56 28.1072V23.4615H221.296C221.11 23.4615 220.958 23.4076 220.84 23.2998C220.732 23.192 220.678 23.0596 220.678 22.9028V21.2856H227.147V29.3715C226.618 29.7538 226.064 30.087 225.486 30.3712C224.917 30.6555 224.305 30.8956 223.648 31.0916C223.001 31.2778 222.305 31.415 221.56 31.5032C220.816 31.6013 220.007 31.6503 219.135 31.6503C217.606 31.6503 216.204 31.3905 214.93 30.8711C213.656 30.3418 212.558 29.6067 211.637 28.6658C210.716 27.7151 209.995 26.5782 209.476 25.2551C208.966 23.9319 208.711 22.4765 208.711 20.8887C208.711 19.2813 208.961 17.8161 209.461 16.4929C209.971 15.1698 210.691 14.0378 211.622 13.0969C212.563 12.1462 213.695 11.4111 215.018 10.8916C216.351 10.3722 217.841 10.1124 219.488 10.1124C220.321 10.1124 221.095 10.1761 221.81 10.3036C222.526 10.4212 223.187 10.5976 223.795 10.8328C224.413 11.0582 224.981 11.3376 225.501 11.6708C226.02 11.9942 226.505 12.3618 226.956 12.7734L226.147 14.0672C225.981 14.3318 225.765 14.4641 225.501 14.4641C225.344 14.4641 225.172 14.4102 224.986 14.3024C224.741 14.1652 224.467 13.9986 224.163 13.8025C223.859 13.6065 223.486 13.4203 223.045 13.2439C222.614 13.0577 222.1 12.9008 221.502 12.7734C220.914 12.646 220.213 12.5823 219.399 12.5823C218.213 12.5823 217.14 12.7783 216.18 13.1704C215.219 13.5526 214.401 14.1064 213.725 14.8317C213.048 15.5471 212.529 16.4194 212.166 17.4485C211.804 18.4678 211.622 19.6146 211.622 20.8887C211.622 22.2216 211.808 23.4125 212.181 24.4612C212.563 25.5001 213.097 26.3822 213.783 27.1075C214.469 27.8328 215.283 28.3865 216.224 28.7688C217.165 29.151 218.204 29.3421 219.341 29.3421ZM244.521 10.3477V12.6705H234.406V19.6685H242.595V21.9031H234.406V29.0922H244.521V31.415H231.539V10.3477H244.521ZM251.755 22.6235V31.415H248.918V10.3477H254.872C256.205 10.3477 257.357 10.4849 258.327 10.7593C259.297 11.0239 260.096 11.4111 260.723 11.9207C261.361 12.4304 261.831 13.0479 262.135 13.7731C262.439 14.4886 262.591 15.2923 262.591 16.1842C262.591 16.9291 262.473 17.625 262.238 18.2718C262.002 18.9187 261.659 19.5019 261.209 20.0213C260.768 20.531 260.224 20.9671 259.577 21.3298C258.94 21.6924 258.214 21.9668 257.401 22.153C257.754 22.3589 258.067 22.6578 258.342 23.0498L264.487 31.415H261.958C261.439 31.415 261.057 31.2141 260.812 30.8123L255.343 23.2851C255.176 23.0498 254.995 22.8832 254.799 22.7852C254.603 22.6774 254.309 22.6235 253.917 22.6235H251.755ZM251.755 20.5506H254.74C255.573 20.5506 256.303 20.4526 256.93 20.2565C257.568 20.0507 258.097 19.7665 258.518 19.4038C258.949 19.0314 259.273 18.5904 259.489 18.0807C259.704 17.571 259.812 17.0075 259.812 16.39C259.812 15.1355 259.395 14.1897 258.562 13.5526C257.739 12.9155 256.509 12.597 254.872 12.597H251.755V20.5506Z" fill="#F59A1B"/>
<g clip-path="url(#clip0_1050_520)">
<path d="M26.6905 25.2128V27.4261C26.6204 27.7104 26.5726 28.0023 26.4778 28.2781C25.8854 29.9976 24.3893 31.0515 22.5489 31.0554C17.754 31.0554 12.9591 31.0554 8.16424 31.0554C8.05331 31.0554 7.94314 31.0554 7.83221 31.0469C6.01641 30.9552 4.4063 29.5762 4.11818 27.7843C3.99954 27.0409 4.04114 26.2713 4.02573 25.5132C4.01341 24.8969 4.33389 24.5888 4.94634 24.5888C8.64419 24.5888 12.34 24.5888 16.0337 24.5888C16.3004 24.5854 16.5602 24.6731 16.7702 24.8376C17.5462 25.4257 18.3246 26.0101 19.1052 26.591C19.2039 26.668 19.304 26.7366 19.4057 26.8105C20.2963 26.1395 21.1676 25.4855 22.0373 24.8283C22.2475 24.6641 22.5078 24.577 22.7746 24.5818C23.7414 24.5888 24.7083 24.5988 25.6735 24.5818C26.1704 24.568 26.5133 24.7398 26.6905 25.2128Z" fill="#F43127"/>
<path d="M30.1569 4.76253C29.9257 5.64308 29.6946 6.52209 29.4712 7.40418C28.6407 10.7168 27.8139 14.0295 26.9906 17.3421C26.9428 17.5363 26.8673 17.5987 26.6647 17.5987C19.1411 17.593 11.617 17.5912 4.09243 17.5933C4.02617 17.5933 3.95915 17.5871 3.86131 17.5817C3.70723 16.9816 3.55316 16.3799 3.40447 15.7767C2.50312 12.1754 1.60434 8.57363 0.708125 4.97131C0.652361 4.78836 0.632994 4.59625 0.651118 4.40585C0.75589 3.75872 1.50239 3.48139 2.03781 3.892C2.88523 4.55068 3.72264 5.23016 4.56313 5.90193L8.16314 8.78317C8.67468 9.19225 8.75017 9.44185 8.54294 10.0558C8.39909 10.4634 8.41191 10.9099 8.57892 11.3086C8.74593 11.7073 9.05519 12.0296 9.4466 12.2129C9.82869 12.3924 10.2631 12.4265 10.6685 12.3088C11.0739 12.1911 11.4226 11.9297 11.6491 11.5735C11.8797 11.2138 11.9693 10.7817 11.9008 10.36C11.8323 9.93824 11.6104 9.5567 11.2778 9.28854C10.7717 8.86792 10.7016 8.54281 10.9935 7.95732C12.1748 5.58864 13.3576 3.2192 14.5419 0.848981C14.7222 0.48536 14.9679 0.223428 15.3893 0.222658C15.8108 0.221888 16.0619 0.479967 16.2429 0.844359C17.4242 3.2156 18.6067 5.58479 19.7906 7.95193C20.0841 8.53973 20.0132 8.87639 19.514 9.28546C19.1801 9.55281 18.9571 9.93441 18.8881 10.3566C18.8191 10.7787 18.9089 11.2114 19.1404 11.5712C19.3657 11.9282 19.7134 12.1908 20.1184 12.3099C20.5233 12.429 20.9579 12.3965 21.3406 12.2183C21.7282 12.0389 22.0361 11.723 22.2057 11.3309C22.3752 10.9389 22.3944 10.4981 22.2596 10.0928C22.0432 9.42259 22.1056 9.21074 22.6448 8.7747C24.6247 7.18925 26.6049 5.60482 28.5853 4.02143C29.2455 3.49371 29.7709 3.60927 30.1569 4.36039V4.76253Z" fill="#F43127"/>
<path d="M4.10156 19.3486H26.69V19.6429C26.69 20.354 26.69 21.0651 26.69 21.7761C26.69 22.4641 26.3503 22.8023 25.6616 22.8023H5.16932C4.4259 22.8023 4.10542 22.4772 4.10465 21.7237C4.10465 21.0319 4.10465 20.3404 4.10465 19.6491L4.10156 19.3486Z" fill="#F43127"/>
</g>
<defs>
<clipPath id="clip0_1050_520">
<rect width="29.5142" height="30.8316" fill="white" transform="translate(0.642578 0.225586)"/>
</clipPath>
</defs>
</svg>
