<svg width="265" height="36" viewBox="0 0 265 36" fill="none" xmlns="http://www.w3.org/2000/svg">
<path d="M40.359 12.6665V18.1461H47.4693V21.4808H40.359V27.078H49.4966V30.5303H35.9224V9.21417H49.4966V12.6665H40.359ZM76.2987 9.21417V30.5303H72.4057V17.4409C72.4057 17.1667 72.4106 16.8729 72.4204 16.5595C72.44 16.2461 72.4694 15.9278 72.5085 15.6046L66.4119 27.1661C66.0789 27.8027 65.5648 28.121 64.8694 28.121H64.2524C63.9096 28.121 63.606 28.0427 63.3416 27.886C63.0771 27.7195 62.8666 27.4795 62.7099 27.1661L56.5839 15.5605C56.6133 15.9033 56.6378 16.2363 56.6573 16.5595C56.6769 16.8729 56.6867 17.1667 56.6867 17.4409V30.5303H52.7937V9.21417H56.1432C56.3292 9.21417 56.4957 9.21906 56.6426 9.22886C56.7896 9.23865 56.9169 9.26803 57.0246 9.317C57.1421 9.35617 57.245 9.42473 57.3331 9.52267C57.431 9.61081 57.5241 9.73813 57.6122 9.90463L63.5766 21.2752C63.7627 21.618 63.9341 21.9705 64.0908 22.3329C64.2573 22.6953 64.414 23.0674 64.5609 23.4494C64.7078 23.0576 64.8596 22.6757 65.0163 22.3035C65.1828 21.9314 65.3591 21.5739 65.5452 21.2311L71.4655 9.90463C71.5536 9.73813 71.6467 9.61081 71.7446 9.52267C71.8426 9.42473 71.9454 9.35617 72.0531 9.317C72.1706 9.26803 72.298 9.23865 72.4351 9.22886C72.582 9.21906 72.7534 9.21417 72.9492 9.21417H76.2987ZM87.9387 19.8208C89.3197 19.8208 90.3284 19.4878 90.965 18.8218C91.6114 18.1559 91.9346 17.245 91.9346 16.0894C91.9346 15.5605 91.8513 15.0806 91.6849 14.6497C91.5282 14.209 91.2833 13.8368 90.9503 13.5332C90.6271 13.2198 90.2158 12.9799 89.7163 12.8134C89.2168 12.6469 88.6243 12.5636 87.9387 12.5636H85.1475V19.8208H87.9387ZM87.9387 9.21417C89.398 9.21417 90.6565 9.38556 91.7142 9.72834C92.7818 10.0711 93.6583 10.551 94.3439 11.168C95.0294 11.7752 95.5338 12.5 95.857 13.3422C96.19 14.1845 96.3565 15.1002 96.3565 16.0894C96.3565 17.1373 96.1851 18.0971 95.8423 18.9687C95.4995 19.8404 94.9805 20.5896 94.2851 21.2164C93.5897 21.8432 92.7132 22.3329 91.6555 22.6855C90.5977 23.0283 89.3588 23.1996 87.9387 23.1996H85.1475V30.5303H80.7403V9.21417H87.9387ZM103.598 30.5303H99.161V9.21417H103.598V30.5303ZM114.725 19.3066C115.44 19.3066 116.057 19.2185 116.576 19.0422C117.095 18.8561 117.521 18.6064 117.854 18.293C118.187 17.9698 118.432 17.5927 118.589 17.1618C118.746 16.7309 118.824 16.2608 118.824 15.7515C118.824 14.7427 118.486 13.9592 117.81 13.401C117.144 12.8428 116.126 12.5636 114.755 12.5636H112.463V19.3066H114.725ZM125.053 30.5303H121.072C120.327 30.5303 119.789 30.2463 119.456 29.6782L115.401 23.1409C115.235 22.8862 115.048 22.7002 114.843 22.5826C114.647 22.4651 114.353 22.4064 113.961 22.4064H112.463V30.5303H108.056V9.21417H114.755C116.243 9.21417 117.516 9.37087 118.574 9.68427C119.632 9.98787 120.499 10.4139 121.174 10.9624C121.85 11.5108 122.345 12.167 122.658 12.9309C122.972 13.685 123.128 14.5175 123.128 15.4283C123.128 16.1335 123.025 16.8043 122.82 17.4409C122.624 18.0677 122.335 18.6407 121.953 19.1597C121.571 19.6788 121.101 20.1391 120.543 20.5406C119.985 20.9422 119.348 21.2654 118.633 21.5102C118.917 21.6669 119.181 21.8579 119.426 22.0832C119.671 22.2986 119.891 22.5582 120.087 22.8618L125.053 30.5303ZM131.573 12.6665V18.1461H138.683V21.4808H131.573V27.078H140.71V30.5303H127.136V9.21417H140.71V12.6665H131.573ZM158.825 28.2679C159.638 28.2679 160.338 28.1749 160.925 27.9888C161.513 27.8027 161.993 27.5432 162.365 27.2102C162.747 26.8674 163.026 26.4659 163.203 26.0056C163.379 25.5355 163.467 25.0213 163.467 24.463C163.467 23.3759 163.08 22.519 162.306 21.8922C161.533 21.2556 160.372 20.9373 158.825 20.9373H154.271V28.2679H158.825ZM154.271 11.7263V18.91H158.031C158.835 18.91 159.53 18.8218 160.117 18.6456C160.715 18.4693 161.205 18.2244 161.587 17.911C161.978 17.5976 162.267 17.2206 162.453 16.7798C162.639 16.3293 162.732 15.8396 162.732 15.3108C162.732 14.067 162.36 13.161 161.616 12.593C160.872 12.0152 159.716 11.7263 158.149 11.7263H154.271ZM158.149 9.4786C159.442 9.4786 160.553 9.60592 161.484 9.86055C162.424 10.1152 163.193 10.4776 163.79 10.9477C164.397 11.4178 164.843 11.9956 165.127 12.6812C165.411 13.3569 165.553 14.1208 165.553 14.9729C165.553 15.492 165.47 15.9914 165.303 16.4713C165.147 16.9414 164.907 17.3822 164.583 17.7935C164.26 18.2048 163.849 18.577 163.349 18.91C162.86 19.2332 162.282 19.4976 161.616 19.7033C163.163 19.9971 164.324 20.5504 165.098 21.3633C165.881 22.1664 166.273 23.2241 166.273 24.5365C166.273 25.4277 166.106 26.2406 165.773 26.9751C165.45 27.7097 164.97 28.3414 164.334 28.8702C163.707 29.3991 162.933 29.8104 162.013 30.1042C161.092 30.3883 160.044 30.5303 158.869 30.5303H151.435V9.4786H158.149ZM178.554 28.2679C179.425 28.2679 180.204 28.121 180.89 27.8272C181.575 27.5334 182.153 27.122 182.623 26.5932C183.103 26.0643 183.465 25.4326 183.71 24.6981C183.965 23.9636 184.092 23.1556 184.092 22.2741V9.4786H186.927V22.2741C186.927 23.4886 186.732 24.6148 186.34 25.653C185.958 26.6911 185.405 27.5921 184.68 28.3561C183.965 29.1102 183.088 29.7027 182.05 30.1336C181.012 30.5646 179.847 30.78 178.554 30.78C177.261 30.78 176.096 30.5646 175.057 30.1336C174.019 29.7027 173.138 29.1102 172.413 28.3561C171.688 27.5921 171.13 26.6911 170.738 25.653C170.356 24.6148 170.165 23.4886 170.165 22.2741V9.4786H173.001V22.2594C173.001 23.1409 173.123 23.9489 173.368 24.6834C173.623 25.4179 173.985 26.0496 174.455 26.5785C174.935 27.1074 175.518 27.5236 176.203 27.8272C176.899 28.121 177.682 28.2679 178.554 28.2679ZM197.868 19.6739C198.69 19.6739 199.415 19.576 200.042 19.3801C200.678 19.1744 201.207 18.8904 201.628 18.528C202.059 18.1559 202.383 17.7151 202.598 17.2059C202.813 16.6966 202.921 16.1335 202.921 15.5164C202.921 14.2628 202.51 13.3177 201.687 12.6812C200.864 12.0446 199.63 11.7263 197.985 11.7263H194.871V19.6739H197.868ZM207.593 30.5303H205.066C204.547 30.5303 204.165 30.3295 203.92 29.928L198.455 22.4064C198.289 22.1713 198.108 22.0048 197.912 21.9069C197.726 21.7991 197.432 21.7453 197.03 21.7453H194.871V30.5303H192.035V9.4786H197.985C199.317 9.4786 200.468 9.61571 201.437 9.88993C202.407 10.1544 203.205 10.5412 203.832 11.0505C204.469 11.5598 204.939 12.1768 205.242 12.9015C205.546 13.6165 205.698 14.4195 205.698 15.3108C205.698 16.0551 205.58 16.7505 205.345 17.3968C205.11 18.0432 204.767 18.626 204.317 19.145C203.876 19.6543 203.333 20.0901 202.686 20.4525C202.05 20.8149 201.325 21.0891 200.512 21.2752C200.874 21.4808 201.188 21.7796 201.452 22.1713L207.593 30.5303ZM227.355 20.4084V28.4883C226.297 29.2522 225.166 29.8251 223.962 30.2071C222.767 30.5792 221.454 30.7653 220.025 30.7653C218.33 30.7653 216.802 30.5058 215.441 29.9867C214.08 29.4579 212.914 28.7233 211.945 27.7831C210.985 26.8331 210.245 25.6971 209.726 24.3749C209.207 23.0527 208.948 21.5984 208.948 20.0118C208.948 18.4056 209.198 16.9414 209.697 15.6193C210.206 14.2971 210.926 13.1659 211.857 12.2257C212.787 11.2758 213.918 10.5412 215.25 10.0222C216.582 9.50308 218.071 9.24355 219.716 9.24355C220.548 9.24355 221.322 9.30721 222.037 9.43452C222.752 9.55205 223.413 9.72834 224.02 9.96339C224.628 10.1886 225.191 10.4678 225.71 10.8008C226.229 11.1239 226.714 11.4912 227.164 11.9026L226.356 13.1953C226.229 13.3912 226.062 13.5185 225.857 13.5773C225.661 13.6263 225.44 13.5773 225.196 13.4304C224.961 13.2933 224.691 13.1268 224.388 12.9309C224.084 12.735 223.712 12.5489 223.271 12.3727C222.84 12.1866 222.326 12.0299 221.729 11.9026C221.141 11.7752 220.441 11.7116 219.628 11.7116C218.443 11.7116 217.37 11.9074 216.411 12.2992C215.451 12.6812 214.633 13.2345 213.957 13.9592C213.282 14.6742 212.762 15.5458 212.4 16.5742C212.038 17.5927 211.857 18.7386 211.857 20.0118C211.857 21.3339 212.043 22.519 212.415 23.5669C212.797 24.6051 213.335 25.4914 214.031 26.2259C214.736 26.9507 215.588 27.504 216.587 27.886C217.586 28.2679 218.707 28.4589 219.951 28.4589C220.93 28.4589 221.797 28.3512 222.551 28.1357C223.315 27.9104 224.06 27.6019 224.784 27.2102V22.5826H221.508C221.322 22.5826 221.17 22.5288 221.053 22.421C220.945 22.3133 220.891 22.1811 220.891 22.0244V20.4084H227.355ZM244.704 28.2092L244.689 30.5303H231.717V9.4786H244.689V11.7997H234.567V18.7925H242.765V21.0254H234.567V28.2092H244.704ZM254.507 19.6739C255.33 19.6739 256.054 19.576 256.681 19.3801C257.318 19.1744 257.847 18.8904 258.268 18.528C258.699 18.1559 259.022 17.7151 259.237 17.2059C259.453 16.6966 259.56 16.1335 259.56 15.5164C259.56 14.2628 259.149 13.3177 258.326 12.6812C257.504 12.0446 256.27 11.7263 254.624 11.7263H251.51V19.6739H254.507ZM264.232 30.5303H261.705C261.186 30.5303 260.804 30.3295 260.559 29.928L255.094 22.4064C254.928 22.1713 254.747 22.0048 254.551 21.9069C254.365 21.7991 254.071 21.7453 253.669 21.7453H251.51V30.5303H248.675V9.4786H254.624C255.956 9.4786 257.107 9.61571 258.077 9.88993C259.046 10.1544 259.844 10.5412 260.471 11.0505C261.108 11.5598 261.578 12.1768 261.882 12.9015C262.185 13.6165 262.337 14.4195 262.337 15.3108C262.337 16.0551 262.219 16.7505 261.984 17.3968C261.749 18.0432 261.407 18.626 260.956 19.145C260.515 19.6543 259.972 20.0901 259.325 20.4525C258.689 20.8149 257.964 21.0891 257.151 21.2752C257.514 21.4808 257.827 21.7796 258.091 22.1713L264.232 30.5303Z" fill="#1D0605" fill-opacity="0.9"/>
<g clip-path="url(#clip0_1010_1480)">
<path d="M26.0281 25.3119V27.5236C25.958 27.8076 25.9103 28.0994 25.8156 28.375C25.2236 30.0932 23.7286 31.1463 21.8896 31.1502C17.0983 31.1502 12.307 31.1502 7.51565 31.1502C7.4048 31.1502 7.29472 31.1502 7.18386 31.1417C5.36942 31.0501 3.76051 29.6721 3.4726 27.8815C3.35405 27.1387 3.39562 26.3696 3.38023 25.6121C3.36791 24.9963 3.68815 24.6884 4.30015 24.6884C7.99524 24.6884 11.6883 24.6884 15.3793 24.6884C15.6457 24.685 15.9054 24.7727 16.1152 24.937C16.8907 25.5246 17.6684 26.1087 18.4485 26.6891C18.547 26.7661 18.6471 26.8346 18.7487 26.9085C19.6386 26.238 20.5093 25.5844 21.3784 24.9278C21.5885 24.7636 21.8486 24.6766 22.1151 24.6814C23.0812 24.6884 24.0473 24.6984 25.0119 24.6814C25.5084 24.6676 25.851 24.8392 26.0281 25.3119Z" fill="#1D0605" fill-opacity="0.9"/>
<path d="M29.4923 4.87634C29.2614 5.75623 29.0304 6.63459 28.8072 7.51602C27.9773 10.8262 27.151 14.1364 26.3284 17.4466C26.2806 17.6406 26.2052 17.7029 26.0027 17.7029C18.4848 17.6973 10.9663 17.6955 3.44728 17.6975C3.38107 17.6975 3.3141 17.6914 3.21634 17.686C3.06237 17.0863 2.90841 16.4851 2.75984 15.8823C1.85916 12.2837 0.961047 8.68459 0.0654999 5.08496C0.00977727 4.90214 -0.00957539 4.71018 0.00853463 4.51992C0.113229 3.87328 0.859176 3.59615 1.39419 4.00645C2.24099 4.66464 3.07777 5.34361 3.91764 6.01489L7.51496 8.89398C8.02612 9.30275 8.10156 9.55217 7.89448 10.1657C7.75073 10.573 7.76355 11.0192 7.93043 11.4175C8.09731 11.8159 8.40635 12.138 8.79746 12.3212C9.17927 12.5005 9.61336 12.5346 10.0185 12.417C10.4236 12.2994 10.772 12.0382 10.9984 11.6822C11.2288 11.3228 11.3183 10.891 11.2499 10.4696C11.1814 10.0482 10.9597 9.66693 10.6273 9.39898C10.1215 8.97866 10.0515 8.6538 10.3432 8.06875C11.5236 5.70183 12.7055 3.33415 13.889 0.965702C14.0691 0.602351 14.3147 0.340615 14.7358 0.339845C15.1569 0.339076 15.4078 0.596963 15.5887 0.961083C16.7691 3.33056 17.9508 5.69798 19.1337 8.06336C19.427 8.65072 19.3562 8.98713 18.8574 9.3959C18.5237 9.66304 18.3009 10.0444 18.2319 10.4662C18.163 10.888 18.2528 11.3204 18.484 11.6799C18.7091 12.0366 19.0566 12.2991 19.4613 12.4181C19.866 12.5371 20.3002 12.5046 20.6826 12.3266C21.0699 12.1473 21.3776 11.8316 21.547 11.4398C21.7164 11.0481 21.7356 10.6077 21.601 10.2027C21.3846 9.53293 21.447 9.32123 21.9859 8.88552C23.9643 7.30124 25.9429 5.718 27.9219 4.13578C28.5816 3.60846 29.1066 3.72393 29.4923 4.4745V4.87634Z" fill="#1D0605" fill-opacity="0.9"/>
<path d="M3.45605 19.4521H26.0277V19.7462C26.0277 20.4568 26.0277 21.1673 26.0277 21.8778C26.0277 22.5653 25.6882 22.9032 25 22.9032H4.52302C3.78015 22.9032 3.45991 22.5784 3.45914 21.8255C3.45914 21.1342 3.45914 20.4432 3.45914 19.7524L3.45605 19.4521Z" fill="#1D0605" fill-opacity="0.9"/>
</g>
<defs>
<clipPath id="clip0_1010_1480">
<rect width="29.4922" height="30.8086" fill="white" transform="translate(0 0.343262)"/>
</clipPath>
</defs>
</svg>
