<svg width="27" height="15" viewBox="0 0 27 15" fill="none" xmlns="http://www.w3.org/2000/svg">
<g clip-path="url(#clip0_1050_532)">
<path d="M0 8.58597H2.05485L3.1967 2.90628H1.14158L0 8.58597ZM1.2548 2.22886H3.31826L3.65737 0.529531H1.59472L1.2548 2.22886ZM2.85409 10.1842H4.90921L6.16482 4.04787H7.70603L7.93327 2.90628H6.42164L6.47892 2.64946C6.56444 2.1654 6.73575 1.6219 7.50622 1.6219C7.96339 1.6219 8.39124 1.65041 8.8191 1.85022L9.04769 0.651623C8.57086 0.483377 8.06914 0.396469 7.5635 0.394531C5.908 0.394531 4.76668 1.36508 4.33829 2.90628H3.62483L3.39651 4.04787H4.10997L2.85409 10.1842Z" fill="#F59A1B"/>
<path d="M9.36171 8.70012C11.7877 8.70012 13.4717 6.50221 13.4717 4.70418C13.4717 3.36278 12.2443 2.79186 11.0457 2.79186C8.39062 2.79186 6.93574 5.16216 6.93574 6.7878C6.93574 8.1292 8.19162 8.70012 9.36171 8.70012ZM15.8697 8.70012C18.2956 8.70012 19.9796 6.50221 19.9796 4.70418C19.9796 3.36278 18.7238 2.79186 17.5249 2.79186C14.8706 2.79186 13.4152 5.16081 13.4152 6.7878C13.4152 8.1292 14.6996 8.70012 15.8697 8.70012ZM23.3189 8.58583H25.3452L27.0002 0.509766H24.9453L24.4599 2.90723L23.6037 2.82171C21.6058 2.82171 19.7793 5.3902 19.7793 7.21701C19.7793 7.95897 20.2634 8.7012 21.0922 8.7012C22.2623 8.7012 23.09 8.13027 23.4318 7.55935H23.5459L23.3189 8.58583ZM16.9822 12.8386C15.3872 14.1602 13.3385 14.8055 11.274 14.6366C8.56246 14.4653 6.62164 12.3817 6.2793 10.184H6.39332C7.02126 11.5556 8.53396 12.8386 10.3893 13.0381C12.2717 13.2665 14.5277 12.4105 15.7548 11.2401L14.3849 10.184H18.5234L17.6091 14.5796L17.0096 12.8671L16.9822 12.8386Z" fill="#F59A1B"/>
</g>
<defs>
<clipPath id="clip0_1050_532">
<rect width="27" height="14.2686" fill="white" transform="translate(0 0.394531)"/>
</clipPath>
</defs>
</svg>
