<svg width="19" height="19" viewBox="0 0 19 19" fill="none" xmlns="http://www.w3.org/2000/svg">
<path d="M9.50206 4.91335C6.94756 4.91335 4.88709 6.97382 4.88709 9.52832C4.88709 12.0828 6.94756 14.1433 9.50206 14.1433C12.0566 14.1433 14.117 12.0828 14.117 9.52832C14.117 6.97382 12.0566 4.91335 9.50206 4.91335ZM9.50206 12.5287C7.85128 12.5287 6.50173 11.1831 6.50173 9.52832C6.50173 7.87352 7.84726 6.52799 9.50206 6.52799C11.1569 6.52799 12.5024 7.87352 12.5024 9.52832C12.5024 11.1831 11.1529 12.5287 9.50206 12.5287ZM15.3822 4.72457C15.3822 5.32303 14.9003 5.801 14.3058 5.801C13.7074 5.801 13.2294 5.31902 13.2294 4.72457C13.2294 4.13013 13.7114 3.64815 14.3058 3.64815C14.9003 3.64815 15.3822 4.13013 15.3822 4.72457ZM18.4388 5.81706C18.3705 4.37513 18.0412 3.09788 16.9848 2.04556C15.9325 0.993231 14.6552 0.663878 13.2133 0.59158C11.7272 0.507234 7.2729 0.507234 5.78679 0.59158C4.34888 0.659861 3.07163 0.989215 2.01528 2.04154C0.958942 3.09387 0.633604 4.37112 0.561307 5.81305C0.47696 7.29916 0.47696 11.7535 0.561307 13.2396C0.629588 14.6815 0.958942 15.9588 2.01528 17.0111C3.07163 18.0634 4.34486 18.3928 5.78679 18.4651C7.2729 18.5494 11.7272 18.5494 13.2133 18.4651C14.6552 18.3968 15.9325 18.0674 16.9848 17.0111C18.0372 15.9588 18.3665 14.6815 18.4388 13.2396C18.5232 11.7535 18.5232 7.30317 18.4388 5.81706ZM16.5189 14.8341C16.2056 15.6214 15.5991 16.2279 14.8079 16.5452C13.623 17.0151 10.8114 16.9067 9.50206 16.9067C8.19268 16.9067 5.37711 17.0111 4.19625 16.5452C3.40901 16.2319 2.80252 15.6254 2.48522 14.8341C2.01528 13.6493 2.12373 10.8377 2.12373 9.52832C2.12373 8.21894 2.0193 5.40336 2.48522 4.22251C2.7985 3.43527 3.405 2.82878 4.19625 2.51147C5.38112 2.04154 8.19268 2.14999 9.50206 2.14999C10.8114 2.14999 13.627 2.04556 14.8079 2.51147C15.5951 2.82476 16.2016 3.43125 16.5189 4.22251C16.9888 5.40738 16.8804 8.21894 16.8804 9.52832C16.8804 10.8377 16.9888 13.6533 16.5189 14.8341Z" fill="#F59A1B"/>
</svg>
